<svg width="512" height="512" viewBox="0 0 512 512" fill="none" xmlns="http://www.w3.org/2000/svg">
<g clip-path="url(#clip0)">
<path d="M343.168 511.979C334.976 511.979 326.763 508.864 320.533 502.635L265.365 447.467C252.885 434.987 252.885 414.699 265.365 402.219L277.867 389.717C290.325 377.259 310.656 377.259 323.115 389.717L378.283 444.885C390.763 457.365 390.763 477.653 378.283 490.133L365.781 502.635C359.552 508.864 351.36 511.979 343.168 511.979V511.979ZM300.501 401.664C297.771 401.664 295.04 402.709 292.949 404.779L280.448 417.28C276.288 421.44 276.288 428.203 280.448 432.363L335.616 487.531C339.776 491.691 346.539 491.691 350.699 487.531L363.2 475.029C367.36 470.869 367.36 464.107 363.2 459.947L308.032 404.779C305.963 402.709 303.232 401.664 300.501 401.664Z" fill="white"/>
<path d="M467.499 387.648C459.307 387.648 451.093 384.533 444.864 378.304L389.696 323.136C377.216 310.656 377.216 290.368 389.696 277.888L402.197 265.387C414.656 252.928 434.987 252.928 447.445 265.387L502.613 320.555C515.093 333.035 515.093 353.323 502.613 365.803L490.112 378.304C483.904 384.512 475.691 387.648 467.499 387.648V387.648ZM424.832 277.333C422.101 277.333 419.371 278.379 417.28 280.448L404.779 292.949C400.619 297.109 400.619 303.872 404.779 308.032L459.947 363.2C464.107 367.36 470.869 367.36 475.029 363.2L487.531 350.699C491.691 346.539 491.691 339.776 487.531 335.616L432.363 280.448C430.293 278.379 427.563 277.333 424.832 277.333V277.333Z" fill="white"/>
<path d="M346.667 432C343.936 432 341.205 430.955 339.115 428.885C334.955 424.725 334.955 417.963 339.115 413.803L413.781 339.136C417.941 334.976 424.704 334.976 428.864 339.136C433.024 343.296 433.024 350.059 428.864 354.219L354.197 428.885C352.128 430.955 349.397 432 346.667 432Z" fill="white"/>
<path d="M270.293 284.373C268.373 284.373 266.453 283.883 264.725 282.816C259.712 279.723 258.112 273.173 261.184 268.139C279.104 238.827 318.656 219.733 361.963 219.52H362.027C367.893 219.52 372.651 224.256 372.693 230.123C372.736 236.011 367.979 240.811 362.091 240.853C326.571 241.045 293.333 256.469 279.403 279.275C277.376 282.56 273.877 284.373 270.293 284.373Z" fill="white"/>
<path d="M152.384 388.736C99.4986 388.736 56.4479 368.171 13.7386 324.715C1.55728 312.533 -2.98672 294.741 1.96261 278.315L25.8559 195.669C40.4906 144.96 56.8106 88.5546 65.0666 60.16C69.5893 44.9706 81.1306 33.152 95.9999 28.4373L177.771 1.38664C188.309 -2.02669 200 0.767979 207.659 8.46931L244.715 45.0986C254.421 54.464 256.128 69.632 248.725 81.1093L222.507 122.411C217.856 129.813 210.112 134.635 201.301 135.68C192.469 136.747 183.637 133.781 177.259 127.531L162.112 112.384L131.84 127.317C126.656 129.92 120.213 127.765 117.589 122.475C114.987 117.184 117.141 110.784 122.411 108.181L159.531 89.856C163.627 87.808 168.576 88.64 171.819 91.8827L192.299 112.363C193.963 113.984 196.373 114.795 198.848 114.496C201.237 114.219 203.307 112.96 204.544 111.019L230.805 69.632C232.768 66.5813 232.341 62.8266 229.824 60.3733L192.597 23.5733C190.528 21.4613 187.243 20.7573 184.384 21.6533L102.571 48.7253C94.4426 51.2853 87.9786 57.984 85.5466 66.1973C77.2906 94.5066 60.9919 150.891 46.3573 201.6L22.4213 284.373C19.7119 293.355 22.1866 302.997 28.8853 309.696C84.8853 366.677 139.264 379.797 222.869 356.459C228.587 354.795 234.411 358.187 235.989 363.883C237.568 369.557 234.261 375.424 228.565 377.003C200.747 384.747 175.616 388.736 152.384 388.736V388.736Z" fill="white"/>
<path d="M277.611 264.533C274.88 264.533 272.128 263.488 270.059 261.397C232.469 223.659 171.413 221.291 133.888 256.192C129.557 260.203 122.816 259.947 118.805 255.659C114.795 251.349 115.029 244.587 119.339 240.576C165.12 197.995 239.509 200.491 285.163 246.357C289.301 250.517 289.301 257.28 285.12 261.44C283.051 263.509 280.341 264.533 277.611 264.533Z" fill="white"/>
<path d="M121.984 277.333C121.109 277.333 120.213 277.227 119.339 276.992C113.621 275.541 110.187 269.696 111.659 264.021L153.941 99.456C155.413 93.7174 161.323 90.304 166.912 91.776C172.629 93.2267 176.064 99.072 174.613 104.747L132.331 269.312C131.072 274.155 126.72 277.333 121.984 277.333V277.333Z" fill="white"/>
</g>
<defs>
<clipPath id="clip0">
<rect width="512" height="512" fill="white"/>
</clipPath>
</defs>
</svg>
